<svg id="eu4C7T96vz51" xmlns="http://www.w3.org/2000/svg" xmlns:xlink="http://www.w3.org/1999/xlink" viewBox="0 0 300 300" shape-rendering="geometricPrecision" text-rendering="geometricPrecision" project-id="60a1205c09aa4b62ba9dfbc320355eaa" export-id="2220fa0ac1ca49dcbef56881ae3d960a" cached="false"><defs><linearGradient id="eu4C7T96vz54-fill" x1="285.68" y1="381.84" x2="146.68" y2="139.84" spreadMethod="pad" gradientUnits="userSpaceOnUse" gradientTransform="translate(0 0)"><stop id="eu4C7T96vz54-fill-0" offset="22%" stop-color="#8ab036"/><stop id="eu4C7T96vz54-fill-1" offset="76%" stop-color="#9fc943"/></linearGradient><linearGradient id="eu4C7T96vz55-fill" x1="117.94" y1="162.06" x2="242.94" y2="287.06" spreadMethod="pad" gradientUnits="userSpaceOnUse" gradientTransform="translate(0 0)"><stop id="eu4C7T96vz55-fill-0" offset="5%" stop-color="#93ab27"/><stop id="eu4C7T96vz55-fill-1" offset="86%" stop-color="#698c1b"/></linearGradient><linearGradient id="eu4C7T96vz510-fill" x1="125.33" y1="125.06" x2="267.11" y2="125.06" spreadMethod="pad" gradientUnits="userSpaceOnUse" gradientTransform="translate(0 0)"><stop id="eu4C7T96vz510-fill-0" offset="10%" stop-color="#ba776a"/><stop id="eu4C7T96vz510-fill-1" offset="84%" stop-color="#a36256"/></linearGradient><linearGradient id="eu4C7T96vz511-fill" x1="89.57" y1="-1.8" x2="110.91" y2="62.2" spreadMethod="pad" gradientUnits="userSpaceOnUse" gradientTransform="translate(0 0)"><stop id="eu4C7T96vz511-fill-0" offset="0%" stop-color="#8c5045"/><stop id="eu4C7T96vz511-fill-1" offset="88%" stop-color="#753d33"/></linearGradient></defs><g transform="matrix(1.449705 0 0 1.263158-134.461105-138.315813)"><g><path d="M249.53,347h-106.62c-2.067823-.076141-3.768737-1.65374-4-3.71L112,157.14c-.226553-1.216376.083103-2.471337.849474-3.442713s1.914823-1.564565,3.150526-1.627287h160.47c1.235703.062722,2.384154.655911,3.150526,1.627287s1.076027,2.226337.849474,3.442713L253.55,343.29c-.232428,2.063534-1.94448,3.643562-4.02,3.71Z" fill="url(#eu4C7T96vz54-fill)"/><path d="M272.79,290.47l12.5-86.41c.226553-1.216376-.083103-2.471337-.849474-3.442713s-1.914823-1.564565-3.150526-1.627287h-170.12c-1.235703.062722-2.384154.655911-3.150526,1.627287s-1.076027,2.226337-.849474,3.442713l12.5,86.41c.231263,2.05626,1.932177,3.633859,4,3.71h145.1c2.07552-.066438,3.787572-1.646466,4.02-3.71Z" fill="url(#eu4C7T96vz55-fill)"/><g><path d="M191.43,271.64c2.395525-7.956944,2.395525-16.443056,0-24.4-1.54861-4.846065-2.29181-9.91334-2.2-15-.053556-3.67015.31554-7.334266,1.1-10.92.155591-.669595-.072928-1.370248-.593383-1.81935s-1.247013-.572588-1.886617-.32065c-9.73,4-16.69,14.77-16.69,27.42c0,12.35,6.64,22.9,16,27.12.826203.357319,1.766027.34287,2.580855-.039679s1.426292-1.096403,1.679145-1.960321Z" fill="#82483e"/><path d="M203.46,218.73c-.494278-.174638-1.038747-.1373-1.504558.10318s-.811565.662728-.955442,1.16682v0c-2.395525,7.956944-2.395525,16.443056,0,24.4c2.662406,8.925101,2.914273,18.396007.73,27.45-.51,2,.6,3,2.48,2.27c9.92-3.88,17.06-14.75,17.06-27.56.03-13.12-7.49-24.22-17.81-27.83Z" fill="#7d4439"/></g></g><g><path d="M142,109.5h108.5c1.599013.016693,3.034434.984128,3.65,2.46l13,28.67h-141.82l13-28.67c.618414-1.482519,2.063693-2.451289,3.67-2.46Z" fill="url(#eu4C7T96vz510-fill)"/><rect width="193.42" height="39.24" rx="6.73" ry="6.73" transform="translate(99.51 136.55)" fill="url(#eu4C7T96vz511-fill)"/></g></g></svg>
